<?xml version="1.0" standalone="no"?>
<!DOCTYPE svg PUBLIC "-//W3C//DTD SVG 20010904//EN"
 "http://www.w3.org/TR/2001/REC-SVG-20010904/DTD/svg10.dtd">
<svg version="1.0" xmlns="http://www.w3.org/2000/svg"
 width="512.000000pt" height="512.000000pt" viewBox="0 0 512.000000 512.000000"
 preserveAspectRatio="xMidYMid meet">
<metadata>
Created by potrace 1.14, written by Peter Selinger 2001-2017
</metadata>
<g transform="translate(0.000000,512.000000) scale(0.100000,-0.100000)"
fill="#000000" stroke="none">
<path d="M2797 5042 c-58 -58 -137 -158 -173 -218 -15 -25 -20 -18 -28 36 -17
132 -30 160 -75 160 -16 0 -33 -6 -39 -12 -11 -13 -28 -96 -38 -183 -4 -27 -7
-51 -8 -52 -1 -1 -17 28 -35 65 -57 112 -95 137 -137 91 -23 -25 -23 -74 0
-208 15 -84 15 -97 1 -139 -9 -25 -17 -65 -18 -87 l-2 -41 -98 33 c-75 25
-103 30 -122 23 -14 -5 -26 -14 -26 -20 -1 -5 -2 -16 -3 -22 -1 -7 1 -21 6
-30 7 -14 3 -19 -19 -24 -83 -20 -254 -118 -358 -207 -209 -178 -390 -413
-543 -707 -84 -161 -164 -382 -149 -407 8 -13 -11 -100 -29 -140 l-17 -35 -86
7 c-103 10 -163 8 -212 -5 -48 -13 -151 -81 -199 -131 -97 -102 -152 -307
-128 -476 43 -292 205 -500 433 -554 64 -15 188 -18 243 -6 30 6 33 5 27 -13
-3 -11 -8 -30 -11 -42 -2 -13 -6 -34 -9 -48 -25 -111 -16 -160 30 -160 21 0
22 -4 22 -63 0 -96 11 -167 33 -212 10 -22 22 -56 25 -75 19 -109 41 -167 106
-280 64 -113 220 -290 377 -428 69 -62 216 -170 242 -180 8 -3 26 -13 40 -22
35 -24 299 -125 465 -178 128 -40 152 -44 270 -49 124 -5 188 3 310 41 89 26
132 42 232 82 162 65 335 155 418 217 135 99 385 371 413 447 3 8 9 17 12 20
14 9 80 150 109 230 16 44 37 115 46 157 9 43 18 87 21 98 2 11 7 65 9 120 4
89 7 100 25 107 37 14 44 58 25 154 -16 77 -25 69 83 68 139 -1 240 30 350
106 115 80 208 234 242 401 24 112 24 161 5 253 -29 139 -83 237 -172 316
-109 95 -309 147 -430 111 -18 -5 -34 -6 -37 -3 -17 32 -37 120 -33 150 7 58
-76 298 -148 427 -12 22 -37 67 -55 100 -155 277 -433 576 -661 709 -62 37
-177 91 -224 107 -22 7 -44 16 -48 20 -5 4 8 30 28 58 39 54 47 90 25 116 -16
19 -54 19 -70 0 -22 -26 -22 -10 0 44 25 65 25 97 1 113 -18 11 -18 14 -5 39
20 40 18 86 -5 99 -36 19 -55 10 -124 -57 l-68 -68 17 40 c9 22 20 49 25 60 5
11 20 47 34 80 30 67 34 107 15 130 -25 30 -55 17 -123 -53z"/>
</g>
</svg>
